<svg width="407" height="35" viewBox="0 0 407 35" fill="none" xmlns="http://www.w3.org/2000/svg">
<path d="M15.975 34.77C13.735 34.77 11.67 34.4083 9.78 33.685C7.91333 32.9617 6.28 31.935 4.88 30.605C3.50333 29.275 2.43 27.6883 1.66 25.845C0.913333 23.9783 0.54 21.9133 0.54 19.65C0.54 17.3867 0.913333 15.3333 1.66 13.49C2.43 11.6233 3.50333 10.025 4.88 8.695C6.28 7.365 7.91333 6.33833 9.78 5.615C11.6467 4.89167 13.6883 4.53 15.905 4.53C18.1217 4.53 20.1283 4.89167 21.925 5.615C23.745 6.33833 25.2967 7.365 26.58 8.695C27.8867 10.025 28.89 11.6233 29.59 13.49C30.29 15.3333 30.64 17.3867 30.64 19.65C30.64 21.1667 30.36 22.485 29.8 23.605C29.2633 24.7017 28.5167 25.5417 27.56 26.125C26.6267 26.7083 25.5417 27 24.305 27C23.4883 27 22.66 26.8367 21.82 26.51C21.0033 26.1833 20.315 25.67 19.755 24.97C19.2183 24.2467 18.95 23.29 18.95 22.1L19.86 24.305C19.6967 24.865 19.3467 25.3433 18.81 25.74C18.2733 26.1367 17.6433 26.4517 16.92 26.685C16.1967 26.895 15.45 27 14.68 27C13.3267 27 12.09 26.685 10.97 26.055C9.85 25.4017 8.95167 24.515 8.275 23.395C7.62167 22.2517 7.295 20.9683 7.295 19.545C7.295 18.145 7.62167 16.8617 8.275 15.695C8.92833 14.505 9.82667 13.56 10.97 12.86C12.1133 12.1367 13.4083 11.775 14.855 11.775C15.9983 11.775 17.0133 11.985 17.9 12.405C18.81 12.825 19.3817 13.3733 19.615 14.05L19.23 15.52V12.125H22.73V20.735C22.73 21.5517 22.8817 22.1933 23.185 22.66C23.4883 23.1033 23.9083 23.325 24.445 23.325C25.1217 23.325 25.6233 23.0333 25.95 22.45C26.2767 21.8667 26.44 20.8633 26.44 19.44C26.44 17.8533 26.2183 16.395 25.775 15.065C25.3317 13.7117 24.6667 12.5333 23.78 11.53C22.9167 10.5267 21.8317 9.75667 20.525 9.22C19.2183 8.66 17.7017 8.38 15.975 8.38C14.2717 8.38 12.7317 8.66 11.355 9.22C9.97833 9.78 8.78833 10.5617 7.785 11.565C6.805 12.5683 6.04667 13.7583 5.51 15.135C4.99667 16.4883 4.74 17.9817 4.74 19.615C4.74 21.295 5.02 22.835 5.58 24.235C6.14 25.6117 6.92167 26.8017 7.925 27.805C8.95167 28.8083 10.1417 29.5783 11.495 30.115C12.8717 30.6517 14.3533 30.92 15.94 30.92C17.06 30.92 18.1217 30.7683 19.125 30.465C20.1517 30.185 21.0967 29.765 21.96 29.205L23.745 32.6C21.4817 34.0467 18.8917 34.77 15.975 34.77ZM15.17 23.325C15.9167 23.325 16.57 23.15 17.13 22.8C17.7133 22.45 18.1683 21.9833 18.495 21.4C18.8217 20.7933 18.985 20.1283 18.985 19.405C18.985 18.3083 18.6233 17.3867 17.9 16.64C17.2 15.8933 16.3017 15.5083 15.205 15.485C14.4817 15.4617 13.8167 15.6133 13.21 15.94C12.6033 16.2667 12.125 16.7333 11.775 17.34C11.425 17.9233 11.25 18.6 11.25 19.37C11.25 20.1167 11.425 20.7933 11.775 21.4C12.125 22.0067 12.5917 22.485 13.175 22.835C13.7817 23.1617 14.4467 23.325 15.17 23.325ZM46.1023 27.42C44.2357 27.42 42.4973 27.0817 40.8873 26.405C39.3007 25.7283 37.9123 24.7833 36.7223 23.57C35.5323 22.3567 34.599 20.9333 33.9223 19.3C33.269 17.6667 32.9423 15.8817 32.9423 13.945C32.9423 12.0083 33.269 10.2233 33.9223 8.59C34.5757 6.93333 35.4973 5.51 36.6873 4.32C37.8773 3.10667 39.2657 2.17333 40.8523 1.52C42.4623 0.843332 44.2123 0.504999 46.1023 0.504999C47.9923 0.504999 49.684 0.819999 51.1773 1.45C52.694 2.08 53.9773 2.92 55.0273 3.97C56.0773 5.02 56.824 6.18667 57.2673 7.47L52.4723 9.78C52.029 8.52 51.2473 7.48167 50.1273 6.665C49.0307 5.825 47.689 5.405 46.1023 5.405C44.5623 5.405 43.209 5.76667 42.0423 6.49C40.8757 7.21333 39.9657 8.21667 39.3123 9.5C38.6823 10.76 38.3673 12.2417 38.3673 13.945C38.3673 15.6483 38.6823 17.1417 39.3123 18.425C39.9657 19.7083 40.8757 20.7117 42.0423 21.435C43.209 22.1583 44.5623 22.52 46.1023 22.52C47.689 22.52 49.0307 22.1117 50.1273 21.295C51.2473 20.455 52.029 19.405 52.4723 18.145L57.2673 20.455C56.824 21.7383 56.0773 22.905 55.0273 23.955C53.9773 25.005 52.694 25.845 51.1773 26.475C49.684 27.105 47.9923 27.42 46.1023 27.42ZM69.5067 27.42C67.6167 27.42 65.89 26.9883 64.3267 26.125C62.7867 25.2617 61.55 24.0833 60.6167 22.59C59.7067 21.0733 59.2517 19.3583 59.2517 17.445C59.2517 15.5083 59.7067 13.7933 60.6167 12.3C61.55 10.8067 62.7867 9.62833 64.3267 8.765C65.89 7.90167 67.6167 7.47 69.5067 7.47C71.3967 7.47 73.1117 7.90167 74.6517 8.765C76.1917 9.62833 77.4167 10.8067 78.3267 12.3C79.26 13.7933 79.7267 15.5083 79.7267 17.445C79.7267 19.3583 79.26 21.0733 78.3267 22.59C77.4167 24.0833 76.1917 25.2617 74.6517 26.125C73.1117 26.9883 71.3967 27.42 69.5067 27.42ZM69.5067 22.695C70.4633 22.695 71.2917 22.4733 71.9917 22.03C72.715 21.5867 73.275 20.9683 73.6717 20.175C74.0917 19.3817 74.3017 18.4717 74.3017 17.445C74.3017 16.4183 74.0917 15.52 73.6717 14.75C73.275 13.9567 72.715 13.3383 71.9917 12.895C71.2917 12.4283 70.4633 12.195 69.5067 12.195C68.55 12.195 67.71 12.4283 66.9867 12.895C66.2633 13.3383 65.6917 13.9567 65.2717 14.75C64.875 15.52 64.6767 16.4183 64.6767 17.445C64.6767 18.4717 64.875 19.3817 65.2717 20.175C65.6917 20.9683 66.2633 21.5867 66.9867 22.03C67.71 22.4733 68.55 22.695 69.5067 22.695ZM82.8195 34V7.89H87.7195V11.53L87.2645 10.48C87.8945 9.52333 88.7462 8.78833 89.8195 8.275C90.9162 7.73833 92.1645 7.47 93.5645 7.47C95.3845 7.47 97.0295 7.91333 98.4995 8.8C99.9695 9.68667 101.136 10.8883 102 12.405C102.863 13.8983 103.295 15.5783 103.295 17.445C103.295 19.2883 102.863 20.9683 102 22.485C101.16 24.0017 100.005 25.2033 98.5345 26.09C97.0645 26.9767 95.3962 27.42 93.5295 27.42C92.2229 27.42 91.0095 27.1867 89.8895 26.72C88.7929 26.23 87.9062 25.5183 87.2295 24.585L88.0695 23.5V34H82.8195ZM92.8995 22.695C93.8795 22.695 94.7429 22.4733 95.4895 22.03C96.2362 21.5867 96.8195 20.9683 97.2395 20.175C97.6595 19.3817 97.8695 18.4717 97.8695 17.445C97.8695 16.4183 97.6595 15.52 97.2395 14.75C96.8195 13.9567 96.2362 13.3383 95.4895 12.895C94.7429 12.4283 93.8795 12.195 92.8995 12.195C91.9662 12.195 91.1262 12.4167 90.3795 12.86C89.6562 13.3033 89.0845 13.9217 88.6645 14.715C88.2679 15.5083 88.0695 16.4183 88.0695 17.445C88.0695 18.4717 88.2679 19.3817 88.6645 20.175C89.0845 20.9683 89.6562 21.5867 90.3795 22.03C91.1262 22.4733 91.9662 22.695 92.8995 22.695ZM109.003 34.77C108.443 34.77 107.894 34.7233 107.358 34.63C106.844 34.5367 106.389 34.385 105.993 34.175V29.87C106.319 29.9633 106.704 30.045 107.148 30.115C107.591 30.185 107.999 30.22 108.373 30.22C109.399 30.22 110.134 29.975 110.578 29.485C111.021 28.995 111.383 28.435 111.663 27.805L112.958 24.83L112.888 29.205L104.488 7.89H110.123L115.688 23.045H113.588L119.153 7.89H124.788L116.598 28.785C116.084 30.115 115.454 31.2233 114.708 32.11C113.961 32.9967 113.109 33.6617 112.153 34.105C111.219 34.5483 110.169 34.77 109.003 34.77ZM127.082 27V7.89H131.982V12.475L131.632 11.81C132.052 10.2 132.741 9.115 133.697 8.555C134.677 7.97167 135.832 7.68 137.162 7.68H138.282V12.23H136.637C135.354 12.23 134.316 12.6267 133.522 13.42C132.729 14.19 132.332 15.2867 132.332 16.71V27H127.082ZM140.583 27V7.89H145.833V27H140.583ZM140.583 6.175V0.924998H145.833V6.175H140.583ZM159.055 34.7C157.585 34.7 156.22 34.455 154.96 33.965C153.7 33.475 152.615 32.7867 151.705 31.9C150.818 31.0367 150.177 30.01 149.78 28.82L154.645 27.105C154.902 27.9917 155.427 28.6917 156.22 29.205C157.013 29.7183 157.958 29.975 159.055 29.975C159.918 29.975 160.665 29.8117 161.295 29.485C161.925 29.1817 162.403 28.7267 162.73 28.12C163.08 27.5133 163.255 26.8017 163.255 25.985V21.61L164.27 22.87C163.617 23.9433 162.777 24.7483 161.75 25.285C160.723 25.7983 159.522 26.055 158.145 26.055C156.372 26.055 154.785 25.6583 153.385 24.865C151.985 24.0483 150.888 22.94 150.095 21.54C149.302 20.1167 148.905 18.5067 148.905 16.71C148.905 14.9133 149.302 13.3267 150.095 11.95C150.888 10.55 151.973 9.45333 153.35 8.66C154.727 7.86667 156.29 7.47 158.04 7.47C159.417 7.47 160.618 7.75 161.645 8.31C162.672 8.84667 163.547 9.675 164.27 10.795L163.605 12.055V7.89H168.505V25.985C168.505 27.665 168.097 29.1583 167.28 30.465C166.463 31.795 165.343 32.8333 163.92 33.58C162.52 34.3267 160.898 34.7 159.055 34.7ZM158.88 21.295C159.767 21.295 160.537 21.1083 161.19 20.735C161.843 20.3617 162.345 19.8367 162.695 19.16C163.068 18.4833 163.255 17.69 163.255 16.78C163.255 15.87 163.068 15.0767 162.695 14.4C162.322 13.7 161.808 13.1633 161.155 12.79C160.502 12.3933 159.743 12.195 158.88 12.195C157.993 12.195 157.2 12.3933 156.5 12.79C155.823 13.1633 155.287 13.7 154.89 14.4C154.517 15.0767 154.33 15.87 154.33 16.78C154.33 17.6667 154.517 18.4483 154.89 19.125C155.287 19.8017 155.823 20.3383 156.5 20.735C157.2 21.1083 157.993 21.295 158.88 21.295ZM172.37 27V0.504999H177.62V11.67L176.99 10.83C177.434 9.68667 178.145 8.84667 179.125 8.31C180.129 7.75 181.295 7.47 182.625 7.47C184.072 7.47 185.332 7.77333 186.405 8.38C187.502 8.98667 188.354 9.83833 188.96 10.935C189.567 12.0083 189.87 13.2683 189.87 14.715V27H184.62V15.835C184.62 15.0883 184.469 14.4467 184.165 13.91C183.885 13.3733 183.477 12.9533 182.94 12.65C182.427 12.3467 181.82 12.195 181.12 12.195C180.444 12.195 179.837 12.3467 179.3 12.65C178.764 12.9533 178.344 13.3733 178.04 13.91C177.76 14.4467 177.62 15.0883 177.62 15.835V27H172.37ZM202.527 27.21C200.217 27.21 198.421 26.5917 197.137 25.355C195.877 24.095 195.247 22.345 195.247 20.105V12.44H192.027V7.89H192.202C193.182 7.89 193.929 7.645 194.442 7.155C194.979 6.665 195.247 5.93 195.247 4.95V3.55H200.497V7.89H204.977V12.44H200.497V19.755C200.497 20.4083 200.614 20.9567 200.847 21.4C201.081 21.82 201.442 22.135 201.932 22.345C202.422 22.555 203.029 22.66 203.752 22.66C203.916 22.66 204.102 22.6483 204.312 22.625C204.522 22.6017 204.744 22.5783 204.977 22.555V27C204.627 27.0467 204.231 27.0933 203.787 27.14C203.344 27.1867 202.924 27.21 202.527 27.21ZM213.888 27V22.8L220.888 15.59C222.265 14.1667 223.303 13.0467 224.003 12.23C224.726 11.39 225.216 10.69 225.473 10.13C225.753 9.57 225.893 9.02167 225.893 8.485C225.893 7.52833 225.578 6.78166 224.948 6.245C224.341 5.685 223.571 5.405 222.638 5.405C221.681 5.405 220.83 5.685 220.083 6.245C219.336 6.78166 218.788 7.61 218.438 8.73L213.713 7.19C213.993 5.83667 214.576 4.65833 215.463 3.655C216.35 2.65167 217.423 1.88167 218.683 1.345C219.943 0.784999 221.261 0.504999 222.638 0.504999C224.365 0.504999 225.881 0.808333 227.188 1.415C228.495 2.02167 229.51 2.87333 230.233 3.97C230.956 5.06667 231.318 6.35 231.318 7.82C231.318 8.75333 231.155 9.675 230.828 10.585C230.501 11.4717 230 12.3817 229.323 13.315C228.67 14.225 227.818 15.2167 226.768 16.29L220.783 22.45H231.563V27H213.888ZM245.518 27.42C243.441 27.42 241.609 26.86 240.023 25.74C238.459 24.62 237.234 23.045 236.348 21.015C235.461 18.985 235.018 16.6283 235.018 13.945C235.018 11.2383 235.449 8.88167 236.313 6.875C237.199 4.86833 238.424 3.305 239.988 2.185C241.574 1.065 243.406 0.504999 245.483 0.504999C247.606 0.504999 249.449 1.065 251.013 2.185C252.599 3.305 253.824 4.88 254.688 6.91C255.574 8.91667 256.018 11.2617 256.018 13.945C256.018 16.6283 255.574 18.985 254.688 21.015C253.824 23.0217 252.599 24.5967 251.013 25.74C249.449 26.86 247.618 27.42 245.518 27.42ZM245.553 22.52C246.626 22.52 247.536 22.1817 248.283 21.505C249.029 20.8283 249.601 19.8483 249.998 18.565C250.394 17.2817 250.593 15.7417 250.593 13.945C250.593 12.1483 250.394 10.62 249.998 9.36C249.601 8.07667 249.018 7.09667 248.248 6.42C247.501 5.74333 246.579 5.405 245.483 5.405C244.409 5.405 243.499 5.74333 242.753 6.42C242.006 7.09667 241.434 8.07667 241.038 9.36C240.641 10.62 240.443 12.1483 240.443 13.945C240.443 15.7183 240.641 17.2467 241.038 18.53C241.434 19.8133 242.006 20.805 242.753 21.505C243.523 22.1817 244.456 22.52 245.553 22.52ZM259.244 27V22.8L266.244 15.59C267.621 14.1667 268.659 13.0467 269.359 12.23C270.083 11.39 270.573 10.69 270.829 10.13C271.109 9.57 271.249 9.02167 271.249 8.485C271.249 7.52833 270.934 6.78166 270.304 6.245C269.698 5.685 268.928 5.405 267.994 5.405C267.038 5.405 266.186 5.685 265.439 6.245C264.693 6.78166 264.144 7.61 263.794 8.73L259.069 7.19C259.349 5.83667 259.933 4.65833 260.819 3.655C261.706 2.65167 262.779 1.88167 264.039 1.345C265.299 0.784999 266.618 0.504999 267.994 0.504999C269.721 0.504999 271.238 0.808333 272.544 1.415C273.851 2.02167 274.866 2.87333 275.589 3.97C276.313 5.06667 276.674 6.35 276.674 7.82C276.674 8.75333 276.511 9.675 276.184 10.585C275.858 11.4717 275.356 12.3817 274.679 13.315C274.026 14.225 273.174 15.2167 272.124 16.29L266.139 22.45H276.919V27H259.244ZM288.844 27.42C287.397 27.42 286.021 27.1517 284.714 26.615C283.407 26.055 282.299 25.2733 281.389 24.27C280.479 23.2667 279.872 22.0883 279.569 20.735L284.364 19.125C284.761 20.245 285.344 21.0967 286.114 21.68C286.884 22.24 287.794 22.52 288.844 22.52C289.707 22.52 290.442 22.3567 291.049 22.03C291.679 21.7033 292.169 21.2483 292.519 20.665C292.869 20.0583 293.044 19.3583 293.044 18.565C293.044 17.7717 292.869 17.095 292.519 16.535C292.192 15.9517 291.714 15.5083 291.084 15.205C290.477 14.8783 289.731 14.715 288.844 14.715C288.331 14.715 287.817 14.7733 287.304 14.89C286.791 15.0067 286.324 15.17 285.904 15.38L284.644 12.755L291.329 5.475H281.144V0.924998H297.419V5.125L290.559 12.93L290.734 10.725C292.297 10.725 293.651 11.0517 294.794 11.705C295.961 12.335 296.859 13.2217 297.489 14.365C298.142 15.5083 298.469 16.8383 298.469 18.355C298.469 20.0817 298.049 21.6333 297.209 23.01C296.369 24.3867 295.226 25.4717 293.779 26.265C292.332 27.035 290.687 27.42 288.844 27.42ZM313.344 27V5.65H306.729V0.924998H325.279V5.65H318.769V27H313.344ZM331.41 27.42C330.034 27.42 328.844 27.1983 327.84 26.755C326.837 26.3117 326.067 25.6817 325.53 24.865C324.994 24.025 324.725 23.0333 324.725 21.89C324.725 20.8167 324.97 19.8717 325.46 19.055C325.95 18.215 326.697 17.515 327.7 16.955C328.727 16.395 329.999 15.9983 331.515 15.765L337.36 14.82V18.67L332.46 19.545C331.714 19.685 331.142 19.93 330.745 20.28C330.349 20.6067 330.15 21.085 330.15 21.715C330.15 22.2983 330.372 22.7533 330.815 23.08C331.259 23.4067 331.807 23.57 332.46 23.57C333.324 23.57 334.082 23.3833 334.735 23.01C335.389 22.6367 335.89 22.135 336.24 21.505C336.614 20.8517 336.8 20.14 336.8 19.37V14.4C336.8 13.6767 336.509 13.07 335.925 12.58C335.365 12.09 334.595 11.845 333.615 11.845C332.682 11.845 331.854 12.1017 331.13 12.615C330.43 13.1283 329.917 13.805 329.59 14.645L325.39 12.65C325.764 11.5767 326.359 10.655 327.175 9.885C327.992 9.115 328.972 8.52 330.115 8.1C331.259 7.68 332.507 7.47 333.86 7.47C335.47 7.47 336.894 7.76167 338.13 8.345C339.367 8.92833 340.324 9.745 341 10.795C341.7 11.8217 342.05 13.0233 342.05 14.4V27H337.15V23.92L338.34 23.71C337.78 24.55 337.162 25.25 336.485 25.81C335.809 26.3467 335.05 26.7433 334.21 27C333.37 27.28 332.437 27.42 331.41 27.42ZM345.901 27V7.89H351.151V27H345.901ZM345.901 6.175V0.924998H351.151V6.175H345.901ZM354.992 27V0.504999H360.242V27H354.992ZM370.944 27.42C369.404 27.42 368.086 27.0933 366.989 26.44C365.916 25.7633 365.099 24.83 364.539 23.64C363.979 22.45 363.699 21.0617 363.699 19.475V7.89H368.949V19.055C368.949 19.7783 369.089 20.42 369.369 20.98C369.673 21.5167 370.093 21.9367 370.629 22.24C371.166 22.5433 371.773 22.695 372.449 22.695C373.149 22.695 373.756 22.5433 374.269 22.24C374.806 21.9367 375.214 21.5167 375.494 20.98C375.798 20.42 375.949 19.7783 375.949 19.055V7.89H381.199V27H376.299V23.22L376.579 24.06C376.136 25.2033 375.413 26.055 374.409 26.615C373.429 27.1517 372.274 27.42 370.944 27.42ZM383.496 27L392.036 13.945L383.496 0.924998H389.726L396.586 11.355H393.541L400.366 0.924998H406.596L398.091 13.945L406.596 27H400.366L393.541 16.535L396.586 16.57L389.726 27H383.496Z" fill="white"/>
</svg>
