<svg width="217" height="17" viewBox="0 0 217 17" fill="none" xmlns="http://www.w3.org/2000/svg">
<path d="M6.04 16.24C5.02667 16.24 4.12667 16.0267 3.34 15.6C2.56667 15.16 1.96 14.5733 1.52 13.84C1.08 13.0933 0.86 12.2467 0.86 11.3C0.86 10.82 0.906667 10.34 1 9.86C1.10667 9.38 1.29333 8.86667 1.56 8.32C1.84 7.77333 2.24 7.16667 2.76 6.5L6.92 1.1H10.16L5.1 7.6L4.66 7.12C4.84667 6.97333 5.04 6.86 5.24 6.78C5.44 6.68667 5.64 6.62 5.84 6.58C6.05333 6.54 6.27333 6.52 6.5 6.52C7.40667 6.52 8.21333 6.72667 8.92 7.14C9.62667 7.55333 10.18 8.12 10.58 8.84C10.9933 9.54667 11.2 10.3467 11.2 11.24C11.2 12.2 10.98 13.06 10.54 13.82C10.1 14.5667 9.48667 15.16 8.7 15.6C7.92667 16.0267 7.04 16.24 6.04 16.24ZM6.04 13.78C6.49333 13.78 6.9 13.68 7.26 13.48C7.63333 13.2667 7.92667 12.9667 8.14 12.58C8.36667 12.1933 8.48 11.76 8.48 11.28C8.48 10.7733 8.36667 10.34 8.14 9.98C7.92667 9.60667 7.64 9.31333 7.28 9.1C6.92 8.88667 6.50667 8.78 6.04 8.78C5.58667 8.78 5.17333 8.88667 4.8 9.1C4.42667 9.31333 4.12667 9.60667 3.9 9.98C3.68667 10.34 3.58 10.7733 3.58 11.28C3.58 11.76 3.68667 12.1933 3.9 12.58C4.12667 12.9667 4.42667 13.2667 4.8 13.48C5.17333 13.68 5.58667 13.78 6.04 13.78ZM19.1113 16.24C17.9246 16.24 16.8846 15.92 15.9913 15.28C15.0979 14.64 14.3979 13.74 13.8913 12.58C13.3979 11.42 13.1513 10.0733 13.1513 8.54C13.1513 6.99333 13.3979 5.64667 13.8913 4.5C14.3846 3.35333 15.0779 2.46 15.9713 1.82C16.8646 1.18 17.9046 0.859999 19.0913 0.859999C20.3046 0.859999 21.3513 1.18 22.2313 1.82C23.1246 2.46 23.8246 3.36 24.3313 4.52C24.8379 5.66667 25.0913 7.00667 25.0913 8.54C25.0913 10.0733 24.8379 11.42 24.3313 12.58C23.8379 13.7267 23.1446 14.6267 22.2513 15.28C21.3579 15.92 20.3113 16.24 19.1113 16.24ZM19.1313 13.76C19.8113 13.76 20.3913 13.5533 20.8713 13.14C21.3513 12.7133 21.7179 12.1133 21.9713 11.34C22.2379 10.5533 22.3713 9.62 22.3713 8.54C22.3713 7.46 22.2379 6.53333 21.9713 5.76C21.7179 4.97333 21.3446 4.37333 20.8513 3.96C20.3713 3.54667 19.7846 3.34 19.0913 3.34C18.4246 3.34 17.8513 3.54667 17.3713 3.96C16.8913 4.37333 16.5179 4.97333 16.2513 5.76C15.9979 6.53333 15.8713 7.46 15.8713 8.54C15.8713 9.60667 15.9979 10.5333 16.2513 11.32C16.5179 12.0933 16.8913 12.6933 17.3713 13.12C17.8646 13.5467 18.4513 13.76 19.1313 13.76ZM26.4114 16L31.2914 8.5L26.4514 1.1H29.5714L33.5314 7.16H32.0914L36.0314 1.1H39.1514L34.3314 8.5L39.1914 16H36.0714L32.0914 9.86H33.5314L29.5314 16H26.4114ZM39.6341 16L44.5141 8.5L39.6741 1.1H42.7941L46.7541 7.16H45.3141L49.2541 1.1H52.3741L47.5541 8.5L52.4141 16H49.2941L45.3141 9.86H46.7541L42.7541 16H39.6341ZM56.4114 16L61.2914 8.5L56.4514 1.1H59.5714L63.5314 7.16H62.0914L66.0314 1.1H69.1514L64.3314 8.5L69.1914 16H66.0714L62.0914 9.86H63.5314L59.5314 16H56.4114ZM69.6341 16L74.5141 8.5L69.6741 1.1H72.7941L76.7541 7.16H75.3141L79.2541 1.1H82.3741L77.5541 8.5L82.4141 16H79.2941L75.3141 9.86H76.7541L72.7541 16H69.6341ZM82.8567 16L87.7367 8.5L82.8967 1.1H86.0167L89.9767 7.16H88.5367L92.4767 1.1H95.5967L90.7767 8.5L95.6367 16H92.5167L88.5367 9.86H89.9767L85.9767 16H82.8567ZM96.0794 16L100.959 8.5L96.1194 1.1H99.2394L103.199 7.16H101.759L105.699 1.1H108.819L103.999 8.5L108.859 16H105.739L101.759 9.86H103.199L99.1994 16H96.0794ZM112.857 16L117.737 8.5L112.897 1.1H116.017L119.977 7.16H118.537L122.477 1.1H125.597L120.777 8.5L125.637 16H122.517L118.537 9.86H119.977L115.977 16H112.857ZM126.079 16L130.959 8.5L126.119 1.1H129.239L133.199 7.16H131.759L135.699 1.1H138.819L133.999 8.5L138.859 16H135.739L131.759 9.86H133.199L129.199 16H126.079ZM139.302 16L144.182 8.5L139.342 1.1H142.462L146.422 7.16H144.982L148.922 1.1H152.042L147.222 8.5L152.082 16H148.962L144.982 9.86H146.422L142.422 16H139.302ZM152.525 16L157.405 8.5L152.565 1.1H155.685L159.645 7.16H158.205L162.145 1.1H165.265L160.445 8.5L165.305 16H162.185L158.205 9.86H159.645L155.645 16H152.525ZM170.962 16L176.022 9.48L176.482 9.96C176.282 10.1067 176.089 10.2267 175.902 10.32C175.715 10.4133 175.515 10.48 175.302 10.52C175.089 10.56 174.862 10.58 174.622 10.58C173.715 10.58 172.909 10.3733 172.202 9.96C171.495 9.54667 170.935 8.98667 170.522 8.28C170.122 7.56 169.922 6.74667 169.922 5.84C169.922 4.88 170.142 4.02667 170.582 3.28C171.035 2.53333 171.649 1.94667 172.422 1.52C173.209 1.08 174.102 0.859999 175.102 0.859999C176.115 0.859999 177.009 1.07333 177.782 1.5C178.555 1.92667 179.162 2.51333 179.602 3.26C180.055 3.99333 180.282 4.84 180.282 5.8C180.282 6.28 180.229 6.76 180.122 7.24C180.015 7.72 179.822 8.23333 179.542 8.78C179.275 9.31333 178.889 9.92 178.382 10.6L174.222 16H170.962ZM175.102 8.3C175.569 8.3 175.982 8.2 176.342 8C176.715 7.78667 177.009 7.49333 177.222 7.12C177.435 6.73333 177.542 6.3 177.542 5.82C177.542 5.31333 177.429 4.87333 177.202 4.5C176.989 4.12667 176.702 3.83333 176.342 3.62C175.982 3.40667 175.569 3.3 175.102 3.3C174.649 3.3 174.235 3.40667 173.862 3.62C173.489 3.83333 173.189 4.12667 172.962 4.5C172.749 4.87333 172.642 5.31333 172.642 5.82C172.642 6.3 172.749 6.73333 172.962 7.12C173.189 7.49333 173.489 7.78667 173.862 8C174.235 8.2 174.649 8.3 175.102 8.3ZM187.433 16.24C186.353 16.24 185.413 16.04 184.613 15.64C183.827 15.2267 183.213 14.6733 182.773 13.98C182.347 13.2867 182.133 12.5267 182.133 11.7C182.133 10.7267 182.393 9.90667 182.913 9.24C183.433 8.56 184.187 8.06 185.173 7.74L185.013 8.4C184.307 8.17333 183.747 7.73333 183.333 7.08C182.933 6.42667 182.733 5.70667 182.733 4.92C182.733 4.13333 182.933 3.43333 183.333 2.82C183.733 2.20667 184.287 1.72667 184.993 1.38C185.7 1.03333 186.513 0.859999 187.433 0.859999C188.34 0.859999 189.14 1.03333 189.833 1.38C190.54 1.72667 191.093 2.20667 191.493 2.82C191.907 3.43333 192.113 4.13333 192.113 4.92C192.113 5.72 191.907 6.44667 191.493 7.1C191.093 7.74 190.54 8.18 189.833 8.42L189.693 7.72C190.68 8.06667 191.433 8.58 191.953 9.26C192.473 9.92667 192.733 10.7467 192.733 11.72C192.733 12.5467 192.513 13.3067 192.073 14C191.647 14.68 191.033 15.2267 190.233 15.64C189.447 16.04 188.513 16.24 187.433 16.24ZM187.433 13.94C187.953 13.94 188.407 13.8467 188.793 13.66C189.18 13.46 189.48 13.1867 189.693 12.84C189.907 12.48 190.013 12.0733 190.013 11.62C190.013 11.1533 189.907 10.7533 189.693 10.42C189.48 10.0733 189.18 9.80667 188.793 9.62C188.407 9.42 187.953 9.32 187.433 9.32C186.913 9.32 186.46 9.42 186.073 9.62C185.7 9.80667 185.407 10.0733 185.193 10.42C184.98 10.7533 184.873 11.1533 184.873 11.62C184.873 12.0733 184.98 12.48 185.193 12.84C185.407 13.1867 185.7 13.46 186.073 13.66C186.46 13.8467 186.913 13.94 187.433 13.94ZM187.433 7.02C187.82 7.02 188.16 6.93333 188.453 6.76C188.747 6.58667 188.973 6.36 189.133 6.08C189.307 5.78667 189.393 5.45333 189.393 5.08C189.393 4.70667 189.307 4.38 189.133 4.1C188.973 3.80667 188.747 3.58 188.453 3.42C188.16 3.24667 187.82 3.16 187.433 3.16C187.047 3.16 186.7 3.24667 186.393 3.42C186.1 3.58 185.867 3.80667 185.693 4.1C185.533 4.38 185.453 4.70667 185.453 5.08C185.453 5.45333 185.533 5.78667 185.693 6.08C185.867 6.36 186.1 6.58667 186.393 6.76C186.7 6.93333 187.047 7.02 187.433 7.02ZM195.19 16L201.39 3.4H194.37V1.1H204.25V3.4L198.19 16H195.19ZM211.242 16.24C210.162 16.24 209.222 16.04 208.422 15.64C207.635 15.2267 207.022 14.6733 206.582 13.98C206.155 13.2867 205.942 12.5267 205.942 11.7C205.942 10.7267 206.202 9.90667 206.722 9.24C207.242 8.56 207.995 8.06 208.982 7.74L208.822 8.4C208.115 8.17333 207.555 7.73333 207.142 7.08C206.742 6.42667 206.542 5.70667 206.542 4.92C206.542 4.13333 206.742 3.43333 207.142 2.82C207.542 2.20667 208.095 1.72667 208.802 1.38C209.509 1.03333 210.322 0.859999 211.242 0.859999C212.149 0.859999 212.949 1.03333 213.642 1.38C214.349 1.72667 214.902 2.20667 215.302 2.82C215.715 3.43333 215.922 4.13333 215.922 4.92C215.922 5.72 215.715 6.44667 215.302 7.1C214.902 7.74 214.349 8.18 213.642 8.42L213.502 7.72C214.489 8.06667 215.242 8.58 215.762 9.26C216.282 9.92667 216.542 10.7467 216.542 11.72C216.542 12.5467 216.322 13.3067 215.882 14C215.455 14.68 214.842 15.2267 214.042 15.64C213.255 16.04 212.322 16.24 211.242 16.24ZM211.242 13.94C211.762 13.94 212.215 13.8467 212.602 13.66C212.989 13.46 213.289 13.1867 213.502 12.84C213.715 12.48 213.822 12.0733 213.822 11.62C213.822 11.1533 213.715 10.7533 213.502 10.42C213.289 10.0733 212.989 9.80667 212.602 9.62C212.215 9.42 211.762 9.32 211.242 9.32C210.722 9.32 210.269 9.42 209.882 9.62C209.509 9.80667 209.215 10.0733 209.002 10.42C208.789 10.7533 208.682 11.1533 208.682 11.62C208.682 12.0733 208.789 12.48 209.002 12.84C209.215 13.1867 209.509 13.46 209.882 13.66C210.269 13.8467 210.722 13.94 211.242 13.94ZM211.242 7.02C211.629 7.02 211.969 6.93333 212.262 6.76C212.555 6.58667 212.782 6.36 212.942 6.08C213.115 5.78667 213.202 5.45333 213.202 5.08C213.202 4.70667 213.115 4.38 212.942 4.1C212.782 3.80667 212.555 3.58 212.262 3.42C211.969 3.24667 211.629 3.16 211.242 3.16C210.855 3.16 210.509 3.24667 210.202 3.42C209.909 3.58 209.675 3.80667 209.502 4.1C209.342 4.38 209.262 4.70667 209.262 5.08C209.262 5.45333 209.342 5.78667 209.502 6.08C209.675 6.36 209.909 6.58667 210.202 6.76C210.509 6.93333 210.855 7.02 211.242 7.02Z" fill="white"/>
</svg>
