<svg width="210" height="147" viewBox="0 0 210 147" fill="none" xmlns="http://www.w3.org/2000/svg">
<path d="M139.688 73.5102C134.143 73.5102 128.926 70.5571 126.104 65.8322L105.007 30.8551L83.943 65.8322C81.0885 70.5899 75.8716 73.543 70.3267 73.543C68.8502 73.543 67.3737 73.3461 65.9629 72.9196L21.0126 60.0574V118.462C21.0126 123.285 24.2936 127.485 28.9527 128.634L99.8888 146.385C103.236 147.205 106.746 147.205 110.06 146.385L181.062 128.634C185.721 127.452 189.002 123.253 189.002 118.462V60.0574L144.052 72.8867C142.641 73.3133 141.164 73.5102 139.688 73.5102ZM209.443 36.6955L192.546 2.96517C191.528 0.930854 189.33 -0.250365 187.066 0.0449397L105.007 10.5118L135.094 60.4183C136.341 62.4855 138.835 63.4698 141.164 62.8136L206.096 44.275C209.344 43.3235 210.919 39.7142 209.443 36.6955ZM17.469 2.96517L0.571665 36.6955C-0.937615 39.7142 0.670096 43.3235 3.88552 44.2422L68.8174 62.7808C71.1469 63.437 73.6405 62.4526 74.8873 60.3855L105.007 10.5118L22.9156 0.0449397C20.6517 -0.217553 18.4862 0.930854 17.469 2.96517Z" fill="#C0C0C0"/>
</svg>
