<svg width="341" height="273" viewBox="0 0 341 273" fill="none" xmlns="http://www.w3.org/2000/svg">
<path d="M332.475 221.812H203.289C202.895 232.375 195.452 238.875 185.845 238.875H153.45C143.492 238.875 135.857 229.56 135.99 221.812H8.525C3.83625 221.812 0 225.652 0 230.344V238.875C0 257.644 15.345 273 34.1 273H306.9C325.655 273 341 257.644 341 238.875V230.344C341 225.652 337.164 221.812 332.475 221.812ZM306.9 25.5938C306.9 11.5172 295.391 0 281.325 0H59.675C45.6087 0 34.1 11.5172 34.1 25.5938V204.75H306.9V25.5938ZM272.8 170.625H68.2V34.125H272.8V170.625Z" fill="#616161"/>
</svg>
