<svg width="171" height="152" viewBox="0 0 171 152" fill="none" xmlns="http://www.w3.org/2000/svg">
<path d="M166.25 85.5H142.5V114L133 107.677L123.5 114V85.5H99.75C97.1375 85.5 95 87.6375 95 90.25V147.25C95 149.863 97.1375 152 99.75 152H166.25C168.863 152 171 149.863 171 147.25V90.25C171 87.6375 168.863 85.5 166.25 85.5ZM52.25 66.5H118.75C121.363 66.5 123.5 64.3625 123.5 61.75V4.75C123.5 2.1375 121.363 0 118.75 0H95V28.5L85.5 22.1766L76 28.5V0H52.25C49.6375 0 47.5 2.1375 47.5 4.75V61.75C47.5 64.3625 49.6375 66.5 52.25 66.5ZM71.25 85.5H47.5V114L38 107.677L28.5 114V85.5H4.75C2.1375 85.5 0 87.6375 0 90.25V147.25C0 149.863 2.1375 152 4.75 152H71.25C73.8625 152 76 149.863 76 147.25V90.25C76 87.6375 73.8625 85.5 71.25 85.5Z" fill="#ABABAB"/>
</svg>
