<svg width="46" height="17" viewBox="0 0 46 17" fill="none" xmlns="http://www.w3.org/2000/svg">
<path d="M3.56 16L0.54 1.1H3.82L5.98 13.06H5.26L10.78 1.1H14.34L7.16 16H3.56ZM13.7983 16L15.8783 1.1H18.9783L16.8983 16H13.7983ZM25.5805 16.24C24.5405 16.24 23.5938 16.0667 22.7405 15.72C21.9005 15.3733 21.1938 14.88 20.6205 14.24C20.0471 13.6 19.6538 12.8533 19.4405 12L22.0605 10.98C22.3271 11.7667 22.7738 12.3933 23.4005 12.86C24.0271 13.3133 24.7338 13.54 25.5205 13.54C25.9738 13.54 26.3671 13.4667 26.7005 13.32C27.0471 13.16 27.3138 12.9467 27.5005 12.68C27.7005 12.4133 27.8005 12.1133 27.8005 11.78C27.8005 11.46 27.7005 11.1867 27.5005 10.96C27.3005 10.7333 26.9738 10.5467 26.5205 10.4L23.8805 9.5C22.7871 9.12667 21.9738 8.61333 21.4405 7.96C20.9205 7.29333 20.6605 6.48 20.6605 5.52C20.6605 4.64 20.8938 3.85333 21.3605 3.16C21.8405 2.45333 22.4805 1.89333 23.2805 1.48C24.0938 1.06667 25.0071 0.859999 26.0205 0.859999C26.9671 0.859999 27.8205 1.02 28.5805 1.34C29.3538 1.64667 30.0005 2.08667 30.5205 2.66C31.0405 3.23333 31.4005 3.91333 31.6005 4.7L29.0005 5.72C28.7871 5.04 28.4071 4.51333 27.8605 4.14C27.3271 3.75333 26.6871 3.56 25.9405 3.56C25.5005 3.56 25.1138 3.63333 24.7805 3.78C24.4605 3.91333 24.2071 4.10667 24.0205 4.36C23.8471 4.61333 23.7605 4.91333 23.7605 5.26C23.7605 5.62 23.8671 5.92 24.0805 6.16C24.2938 6.4 24.6271 6.6 25.0805 6.76L27.6605 7.66C28.7538 8.03333 29.5671 8.54 30.1005 9.18C30.6471 9.82 30.9205 10.6133 30.9205 11.56C30.9205 12.44 30.6738 13.2333 30.1805 13.94C29.7005 14.6467 29.0538 15.2067 28.2405 15.62C27.4405 16.0333 26.5538 16.24 25.5805 16.24ZM31.4483 16L38.5683 1.1H42.6883L45.6483 16H42.3883L41.8283 12.96H36.3883L34.9683 16H31.4483ZM37.6283 10.26H41.3283L40.0483 3.26L40.8683 3.36L37.6283 10.26Z" fill="#01078D"/>
</svg>
